<?xml version="1.0" encoding="iso-8859-1"?>
<!-- Generator: Adobe Illustrator 18.0.0, SVG Export Plug-In . SVG Version: 6.00 Build 0)  -->
<!DOCTYPE svg PUBLIC "-//W3C//DTD SVG 1.1//EN" "http://www.w3.org/Graphics/SVG/1.1/DTD/svg11.dtd">
<svg version="1.1" id="Capa_1" xmlns="http://www.w3.org/2000/svg" xmlns:xlink="http://www.w3.org/1999/xlink" x="0px" y="0px"
	 viewBox="0 0 458.5 458.5" style="enable-background:new 0 0 458.5 458.5;" xml:space="preserve">
<g>
	<path d="M438.537,15.402H138.463c-11.025,0-19.963,8.937-19.963,19.963c0,7.012,3.619,13.174,9.088,16.736v17.762
		c1.493-0.072,2.994-0.111,4.504-0.111h21.253V55.328h270.309v173.861H242.507c-1.401,2.59-3.05,5.053-4.947,7.338
		c-0.913,2.473-1.915,4.949-2.999,7.412c-1.419,3.652-3.047,7.338-4.848,11.01h206.82c7.114,0,12.879-5.77,12.879-12.879V52.102
		c5.469-3.563,9.088-9.725,9.088-16.736C458.5,24.34,449.561,15.402,438.537,15.402z"/>
	<path d="M249.145,130.152c-3.301-1.451-6.994-1.277-10.081,0.289c3.123,8.863,4.908,18.352,5.108,28.223l3.222-3.518l58.76,25.807
		c5.056,2.219,10.976,0.635,14.246-3.814l36.05-49.035l3.028,21.105c0.843,5.881,5.887,10.123,11.659,10.123
		c0.558,0,1.124-0.037,1.689-0.123c6.448-0.922,10.925-6.9,10-13.346l-7.161-49.93c-0.925-6.451-6.904-10.924-13.348-10.002
		l-49.933,7.158c-6.447,0.928-10.925,6.904-9.999,13.35c0.923,6.447,6.901,10.926,13.348,10.002l22.369-3.207l-31.112,42.32
		L249.145,130.152z"/>
	<path d="M239.452,284.162l-44.758-13.564c-1.079-3.271-3.477-6.1-6.83-8.492c3.688-4.102,6.801-8.25,9.17-11.684
		c5.618-8.145,10.29-16.916,13.529-25.383c1.594-3.568,2.954-7.15,4.054-10.668c4.359-3.652,6.924-9.105,6.924-14.828v-14.016
		c0-4.023-1.266-7.957-3.594-11.219v-19.732c0-34.615-28.161-62.773-62.771-62.773h-20.351c-34.612,0-62.773,28.158-62.773,62.773
		v19.734c-2.327,3.262-3.593,7.197-3.593,11.217v14.016c0,5.719,2.565,11.166,6.923,14.826c1.1,3.512,2.461,7.102,4.054,10.678
		c3.237,8.459,7.914,17.232,13.529,25.367c2.367,3.438,5.482,7.59,9.172,11.691c-3.354,2.392-5.752,5.221-6.833,8.492
		l-44.755,13.564C19.038,293.217,0.156,429.365,0.156,429.365H0.16c-0.097,0.603-0.16,1.221-0.16,1.85
		c0,6.565,5.316,11.883,11.88,11.883H278.12c6.564,0,11.88-5.318,11.88-11.883C290,425.518,270.96,293.217,239.452,284.162z
		 M132.956,319.406c-0.17,1.645-1.33,3.022-2.923,3.465c-0.358,0.1-0.72,0.148-1.08,0.148c-1.242,0-2.44-0.578-3.212-1.605
		l-11.305-14.992c-0.527-0.699-0.812-1.551-0.811-2.426l0.015-24.045c0.001-1.412,0.74-2.719,1.947-3.445
		c1.21-0.727,2.71-0.77,3.957-0.109c3.29,1.74,6.577,2.908,9.768,3.475c1.92,0.34,3.32,2.01,3.32,3.961v10.031
		c0.573,0.227,1.094,0.584,1.515,1.051c0.764,0.846,1.133,1.973,1.016,3.105L132.956,319.406z M175.55,306.422l-11.289,14.986
		c-0.773,1.023-1.971,1.602-3.215,1.602c-0.358,0-0.72-0.047-1.076-0.148c-1.594-0.443-2.754-1.816-2.924-3.463l-2.204-21.379
		c-0.118-1.133,0.252-2.26,1.015-3.105c0.421-0.467,0.941-0.824,1.513-1.051v-10.031c0-1.951,1.402-3.619,3.323-3.961
		c3.188-0.566,6.473-1.732,9.763-3.473c1.249-0.66,2.75-0.615,3.958,0.109c1.208,0.727,1.947,2.037,1.947,3.445l0.002,24.043
		C176.361,304.873,176.077,305.723,175.55,306.422z M155.809,258.586h-21.617c-4.776,0-13.996-6.389-23.836-20.662
		c-7.769-11.256-13.167-23.717-14.437-33.332l-0.219-1.666l-3.904-2.537c-1.141-0.742-1.83-2.012-1.83-3.375v-6.623
		c0-2.225,1.8-4.023,4.021-4.023h1.644v-7.176c0-1.525,0.861-2.92,2.227-3.6c5.54-2.766,16.532-7.404,27.914-7.404
		c9.08,0,16.611,3.021,22.38,8.979c7.19,7.432,15.474,11.197,24.627,11.197c5.18,0,10.538-1.223,15.918-3.635
		c1.244-0.557,2.687-0.445,3.832,0.293c0.536,0.348,0.975,0.813,1.287,1.346h2.195c2.223,0,4.023,1.799,4.023,4.023v6.625
		c0,1.361-0.69,2.631-1.831,3.373l-3.906,2.537l-0.215,1.658c-1.272,9.619-6.669,22.084-14.439,33.342
		C169.804,252.197,160.584,258.586,155.809,258.586z"/>
</g>
<g>
</g>
<g>
</g>
<g>
</g>
<g>
</g>
<g>
</g>
<g>
</g>
<g>
</g>
<g>
</g>
<g>
</g>
<g>
</g>
<g>
</g>
<g>
</g>
<g>
</g>
<g>
</g>
<g>
</g>
</svg>
