<?xml version="1.0" encoding="iso-8859-1"?>
<!-- Generator: Adobe Illustrator 19.0.0, SVG Export Plug-In . SVG Version: 6.00 Build 0)  -->
<svg version="1.1" id="Layer_1" xmlns="http://www.w3.org/2000/svg" xmlns:xlink="http://www.w3.org/1999/xlink" x="0px" y="0px"
	 viewBox="0 0 512 512" style="enable-background:new 0 0 512 512;" xml:space="preserve">
<g>
	<g>
		<rect x="289.17" y="447.969" width="16" height="16.032"/>
	</g>
</g>
<g>
	<g>
		<rect x="257.17" y="447.969" width="16" height="16.032"/>
	</g>
</g>
<g>
	<g>
		<rect x="225.182" y="447.969" width="15.999" height="16.032"/>
	</g>
</g>
<g>
	<g>
		<rect x="193.182" y="447.969" width="15.999" height="16.032"/>
	</g>
</g>
<g>
	<g>
		<path d="M475.493,133.676l11.334-11.336L366.835,2.348l-11.337,11.335l10.331,10.331l-20.662,20.662L300.491,0H57.186
			C39.533,0,25.173,14.362,25.173,32.014v447.971c0,17.653,14.361,32.014,32.013,32.014h383.976
			c17.653,0,32.014-14.362,32.014-32.014v-307.3l-28.678-28.678l20.663-20.663L475.493,133.676z M445.808,167.989H345.167v16.032
			h111.977v263.95H345.167v16.032h111.977v15.983c0,8.813-7.169,15.984-15.983,15.984H57.186c-8.812,0-15.981-7.169-15.981-15.983
			v-15.983h111.976v-16.032H41.205V184.021h111.976v-16.032H41.205V32.014c0-8.813,7.169-15.983,15.981-15.983h236.665
			L445.808,167.989z M433.162,132.671l-76.657-76.658l20.662-20.662l76.658,76.657L433.162,132.671z"/>
	</g>
</g>
<g>
	<g>
		<path d="M316.49,111.993l-63.995-63.995H81.169v63.995H57.186v16.032h287.981v-16.032H316.49z M97.2,111.992V64.029h148.654
			l47.964,47.964H97.2z"/>
	</g>
</g>
<g>
	<g>
		<path d="M309.58,249.192c-24.835-42.873-53.06-76.891-54.248-78.318l-6.158-7.39l-6.158,7.39
			c-1.188,1.427-29.413,35.445-54.249,78.318c-34.278,59.173-44.484,104.496-30.333,134.71
			c12.464,26.611,42.994,40.103,90.74,40.103c47.746,0,78.275-13.492,90.738-40.103C354.065,353.689,343.859,308.365,309.58,249.192
			z M325.393,377.107c-9.597,20.481-35.24,30.866-76.218,30.866s-66.624-10.385-76.219-30.866
			c-11.617-24.795-1.388-66.186,29.582-119.7c17.373-30.02,36.926-56.143,46.638-68.568c9.712,12.426,29.266,38.55,46.638,68.568
			C326.781,310.922,337.01,352.313,325.393,377.107z"/>
	</g>
</g>
<g>
	<g>
		<path d="M285.198,293.151c-13.41-23.135-28.665-41.514-29.307-42.284l-6.159-7.387l-6.157,7.39
			c-0.642,0.772-15.888,19.153-29.289,42.292c-18.928,32.683-24.42,58.021-16.321,75.309c7.317,15.619,24.735,23.538,51.77,23.538
			c27.06,0,44.491-7.924,51.809-23.551C309.638,351.165,304.14,325.829,285.198,293.151z M287.021,361.663
			c-4.449,9.497-16.995,14.313-37.288,14.313c-20.268,0-32.8-4.812-37.249-14.302c-5.569-11.881-0.039-33.295,15.57-60.3
			c7.649-13.233,16.116-25.044,21.68-32.394c5.568,7.349,14.041,19.159,21.695,32.389
			C287.05,328.368,292.588,349.781,287.021,361.663z"/>
	</g>
</g>
<g>
	<g>
		<polygon points="249.175,327.979 249.175,343.978 233.175,343.978 233.175,360.01 249.175,360.01 249.175,344.011 
			265.172,344.011 265.172,327.979 		"/>
	</g>
</g>
<g>
</g>
<g>
</g>
<g>
</g>
<g>
</g>
<g>
</g>
<g>
</g>
<g>
</g>
<g>
</g>
<g>
</g>
<g>
</g>
<g>
</g>
<g>
</g>
<g>
</g>
<g>
</g>
<g>
</g>
</svg>
