<?xml version="1.0" encoding="iso-8859-1"?>
<!-- Generator: Adobe Illustrator 19.0.0, SVG Export Plug-In . SVG Version: 6.00 Build 0)  -->
<svg version="1.1" id="Layer_1" xmlns="http://www.w3.org/2000/svg" xmlns:xlink="http://www.w3.org/1999/xlink" x="0px" y="0px"
	 viewBox="0 0 512.001 512.001" style="enable-background:new 0 0 512.001 512.001;" xml:space="preserve">
<g>
	<g>
		<path d="M471.624,237.564L440.746,74.836c-1.628-8.578-9.125-14.788-17.857-14.788H330.11l-9.616-50.671
			C319.462,3.937,314.708,0,309.171,0H202.829c-5.537,0-10.292,3.937-11.323,9.376l-9.616,50.671H89.111
			c-8.732,0-16.229,6.209-17.857,14.788L40.377,237.564c-20.766,8.373-35.426,28.7-35.426,52.465v118.685
			c0,11.691,9.478,21.168,21.169,21.168h23.013v38.237c0,24.235,19.647,43.881,43.881,43.881c24.234,0,43.881-19.646,43.881-43.881
			v-38.238h238.212v38.237c0,24.235,19.647,43.881,43.881,43.881s43.881-19.646,43.881-43.881v-38.237h23.014
			c11.691,0,21.169-9.478,21.169-21.168V290.028C507.051,266.265,492.389,245.938,471.624,237.564z M294.919,18.373
			c0-1.728,2.043-2.46,4.084-2.46s4.083,0.732,4.083,2.46v33.296c0,1.675-2.042,2.513-4.083,2.513s-4.084-0.837-4.084-2.513V18.373z
			 M262.459,21.095c-0.366-0.576-0.524-1.099-0.524-1.623c0-2.199,2.984-3.874,5.288-3.874c1.151,0,1.937,0.419,2.46,1.361
			l6.963,12.145l6.963-12.145c0.523-0.943,1.309-1.361,2.46-1.361c2.303,0,5.288,1.675,5.288,3.874c0,0.523-0.157,1.046-0.524,1.623
			l-8.69,13.926l9.057,13.977c0.313,0.523,0.471,0.995,0.471,1.466c0,2.251-3.194,4.031-5.445,4.031
			c-0.838,0-1.623-0.262-1.937-0.837l-7.643-12.983l-7.643,12.983c-0.366,0.576-1.099,0.837-1.937,0.837
			c-2.25,0-5.445-1.78-5.445-4.031c0-0.471,0.158-0.943,0.472-1.466l9.057-13.977L262.459,21.095z M245.755,15.599
			c2.408,0,4.763,0.889,5.34,2.722l9.789,31.934c0.052,0.209,0.105,0.419,0.105,0.576c0,1.937-2.984,3.351-5.234,3.351
			c-1.309,0-2.356-0.419-2.669-1.518l-1.781-6.543h-11.045l-1.781,6.543c-0.314,1.1-1.361,1.518-2.669,1.518
			c-2.25,0-5.234-1.414-5.234-3.351c0-0.157,0.052-0.366,0.105-0.576l9.737-31.934C240.991,16.489,243.347,15.599,245.755,15.599z
			 M208.164,15.913h22.615c1.728,0,2.46,1.885,2.46,3.612c0,1.989-0.889,3.717-2.46,3.717h-7.224v28.427
			c0,1.675-2.043,2.513-4.084,2.513c-2.042,0-4.083-0.837-4.083-2.513V23.241h-7.224c-1.571,0-2.461-1.728-2.461-3.717
			C205.703,17.798,206.435,15.913,208.164,15.913z M91.759,379.108c-23.005,0-41.426-18.699-41.426-41.426
			c0-22.879,18.547-41.426,41.426-41.426c22.778,0,41.256,18.385,41.419,41.125c0.001,0.101,0.008,0.2,0.008,0.302
			C133.186,360.561,114.638,379.108,91.759,379.108z M78.154,233.468v-0.001l26.009-137.068h185.144
			c-2.093,4.614-3.268,9.734-3.268,15.131c0,20.257,16.421,36.677,36.677,36.677s36.679-16.421,36.679-36.677
			c0-5.397-1.176-10.516-3.268-15.131h51.712l26.009,137.068h-21.735l-0.16-31.899c-0.116-22.976-18.903-41.669-41.881-41.669
			c-11.807,0-83.168,0-95.008,0c-22.979,0-41.766,18.694-41.879,41.67l-0.16,31.899H78.154z M275.412,201.763v31.704h-6.993
			l0.159-31.722c0.01-1.885,1.543-3.405,3.426-3.4C273.888,198.351,275.412,199.879,275.412,201.763z M334.083,391.941
			c0,5.219-4.231,9.45-9.45,9.45H184.694c-5.219,0-9.45-4.231-9.45-9.45v-30.107c0-5.219,4.231-9.45,9.45-9.45h139.938
			c5.219,0,9.45,4.231,9.45,9.45V391.941z M369.151,233.467v-32.491c0-2.06,1.671-3.731,3.731-3.731c2.06,0,3.731,1.671,3.731,3.731
			c0,0.246-0.018,0.502-0.056,0.77l0.159,31.72H369.151z M420.242,379.108c-22.879,0-41.426-18.547-41.426-41.426
			c0-0.101,0.007-0.203,0.008-0.304c0.164-22.738,18.642-41.122,41.419-41.122c22.879,0,41.426,18.547,41.426,41.426
			C461.667,360.403,443.249,379.108,420.242,379.108z"/>
	</g>
</g>
<g>
	<g>
		<polygon points="245.755,25.807 241.934,39.837 249.576,39.837 		"/>
	</g>
</g>
<g>
</g>
<g>
</g>
<g>
</g>
<g>
</g>
<g>
</g>
<g>
</g>
<g>
</g>
<g>
</g>
<g>
</g>
<g>
</g>
<g>
</g>
<g>
</g>
<g>
</g>
<g>
</g>
<g>
</g>
</svg>
