<?xml version="1.0" encoding="iso-8859-1"?>
<!-- Generator: Adobe Illustrator 19.0.0, SVG Export Plug-In . SVG Version: 6.00 Build 0)  -->
<svg version="1.1" id="Layer_1" xmlns="http://www.w3.org/2000/svg" xmlns:xlink="http://www.w3.org/1999/xlink" x="0px" y="0px"
	 viewBox="0 0 512 512" style="enable-background:new 0 0 512 512;" xml:space="preserve">
<rect x="79.067" y="7.741" style="fill:#6AC8B7;" width="353.866" height="495.413"/>
<rect x="79.067" y="7.741" style="fill:#2DB59F;" width="26.54" height="495.413"/>
<g>
	<path style="fill:#AFF0E8;" d="M450.626,43.127H61.374c-9.772,0-17.693-7.921-17.693-17.693l0,0
		c0-9.772,7.921-17.693,17.693-17.693h389.253c9.772,0,17.693,7.921,17.693,17.693l0,0C468.32,35.206,460.399,43.127,450.626,43.127
		z"/>
	<path style="fill:#AFF0E8;" d="M450.626,503.153H61.374c-9.772,0-17.693-7.921-17.693-17.693l0,0
		c0-9.772,7.921-17.693,17.693-17.693h389.253c9.772,0,17.693,7.921,17.693,17.693l0,0
		C468.32,495.232,460.399,503.153,450.626,503.153z"/>
</g>
<path style="fill:#FDD042;" d="M176.38,281.987c0-43.972,79.62-141.546,79.62-141.546s79.62,97.574,79.62,141.546
	s-35.648,79.62-79.62,79.62S176.38,325.959,176.38,281.987z"/>
<path style="fill:#F2C127;" d="M202.92,281.987c0-32.58,43.702-94.576,66.35-124.518c-7.919-10.47-13.27-17.029-13.27-17.029
	s-79.62,97.573-79.62,141.546s35.646,79.62,79.62,79.62c4.524,0,8.953-0.397,13.27-1.122
	C231.616,354.165,202.92,321.436,202.92,281.987z"/>
<circle style="fill:#FDE5A2;" cx="273.693" cy="308.527" r="26.54"/>
<path d="M450.626,460.026h-9.952V51.974h9.952c14.329,0,25.987-11.658,25.987-25.987S464.956,0,450.626,0H61.374
	C47.044,0,35.387,11.658,35.387,25.987s11.658,25.987,25.987,25.987h8.847v132.7c0,4.581,3.712,8.294,8.294,8.294
	s8.294-3.712,8.294-8.294v-26.54h89.572c4.581,0,8.294-3.712,8.294-8.294s-3.712-8.294-8.294-8.294H86.808V51.974h337.279v89.572
	H335.62c-4.581,0-8.294,3.712-8.294,8.294s3.712,8.294,8.294,8.294h88.467v195.732h-79.62c-4.581,0-8.294,3.712-8.294,8.294
	c0,4.581,3.712,8.294,8.294,8.294h79.62v89.572H86.808v-89.572h89.572c4.581,0,8.294-3.712,8.294-8.294
	c0-4.581-3.712-8.294-8.294-8.294H86.808V220.063c0-4.581-3.712-8.294-8.294-8.294s-8.294,3.712-8.294,8.294v239.963h-8.847
	c-14.329,0-25.987,11.658-25.987,25.987S47.044,512,61.374,512h389.253c14.329,0,25.987-11.658,25.987-25.987
	S464.956,460.026,450.626,460.026z M61.374,35.387c-5.183,0-9.4-4.217-9.4-9.4s4.217-9.4,9.4-9.4h389.253c5.183,0,9.4,4.217,9.4,9.4
	s-4.217,9.4-9.4,9.4H61.374z M450.626,495.413H61.374c-5.183,0-9.4-4.217-9.4-9.4s4.217-9.4,9.4-9.4h389.253
	c5.183,0,9.4,4.217,9.4,9.4S455.809,495.413,450.626,495.413z"/>
<path d="M256,369.901c48.476,0,87.914-39.437,87.914-87.914c0-19.902-13.862-50.807-41.201-91.86
	c-19.898-29.881-39.464-53.92-40.288-54.929c-3.266-4.005-9.585-4.005-12.851,0c-0.824,1.009-20.389,25.048-40.288,54.929
	c-27.338,41.053-41.2,71.959-41.2,91.86C168.086,330.463,207.524,369.901,256,369.901z M256.001,153.743
	c24.615,31.476,71.325,97.545,71.325,128.244c0,39.329-31.997,71.326-71.326,71.326s-71.326-31.997-71.326-71.326
	C184.674,251.309,231.386,185.227,256.001,153.743z"/>
<g>
</g>
<g>
</g>
<g>
</g>
<g>
</g>
<g>
</g>
<g>
</g>
<g>
</g>
<g>
</g>
<g>
</g>
<g>
</g>
<g>
</g>
<g>
</g>
<g>
</g>
<g>
</g>
<g>
</g>
</svg>
