<svg width="32px" height="32px" viewBox="0 0 32 32" id="Lager_44" data-name="Lager 44" xmlns="http://www.w3.org/2000/svg">
  <g id="Group_15" data-name="Group 15">
    <path id="Path_51" data-name="Path 51" d="M16,0A16,16,0,1,0,32,16,16,16,0,0,0,16,0Zm0,28A12,12,0,1,1,28,16,12.013,12.013,0,0,1,16,28Z" fill="#040505"/>
    <path id="Path_52" data-name="Path 52" d="M20.02,16H17a1,1,0,0,1-1-1V11.98A1.979,1.979,0,0,0,14.02,10h-.04A1.979,1.979,0,0,0,12,11.98v6.04A1.979,1.979,0,0,0,13.98,20h6.04A1.979,1.979,0,0,0,22,18.02v-.04A1.979,1.979,0,0,0,20.02,16Z" fill="#040505"/>
  </g>
</svg>
